<svg width="57" height="54" viewBox="0 0 57 54" fill="none" xmlns="http://www.w3.org/2000/svg">
<path d="M27.5489 0.927049C27.8483 0.0057385 29.1517 0.00574088 29.4511 0.927052L35.3477 19.075C35.4815 19.487 35.8655 19.766 36.2987 19.766H55.3806C56.3493 19.766 56.7521 21.0056 55.9684 21.575L40.5308 32.791C40.1803 33.0457 40.0337 33.497 40.1676 33.9091L46.0642 52.057C46.3635 52.9783 45.3091 53.7444 44.5253 53.175L29.0878 41.959C28.7373 41.7043 28.2627 41.7043 27.9122 41.959L12.4747 53.175C11.6909 53.7444 10.6365 52.9783 10.9358 52.057L16.8324 33.9091C16.9663 33.497 16.8197 33.0457 16.4692 32.791L1.03161 21.575C0.247901 21.0056 0.650679 19.766 1.6194 19.766H20.7013C21.1345 19.766 21.5184 19.487 21.6523 19.075L27.5489 0.927049Z" fill="white"/>
</svg>
